PathFileType	4	(X/Y/Z)	Patient4_TMGait_0pt6_01_right_09.trc.trc
DataRate	CameraRate	NumFrames	NumMarkers	Units	OrigDataRate	OrigDataStartFrame	OrigNumFrames
81.395348837209	81.395348837209	5	33	mm	81.395348837209	1	       141
Frame#	Time	Sacral			L.Shoulder			Chest			R.Shoulder			Neck			R.ASIS			L.ASIS			R.Thigh.Superior			R.Thigh.Lateral			R.Thigh.Inferior			R.Patella			L.Thigh.Superior			L.Thigh.Lateral			L.Thigh.Inferior			L.Patella			L.Shank.Superior			L.Shank.Lateral			L.Shank.Inferior			R.Shank.Superior			R.Shank.Lateral			R.Shank.Inferior			R.Heel			R.Midfoot.Superior			R.Midfoot.Lateral			R.Toe			L.Heel			L.Midfoot.Lateral			L.Midfoot.Superior			L.Toe			L.Elbow			L.Wrist			R.Elbow			R.Wrist			
		X1	Y1	Z1	X2	Y2	Z2	X3	Y3	Z3	X4	Y4	Z4	X5	Y5	Z5	X6	Y6	Z6	X7	Y7	Z7	X8	Y8	Z8	X9	Y9	Z9	X10	Y10	Z10	X11	Y11	Z11	X12	Y12	Z12	X13	Y13	Z13	X14	Y14	Z14	X15	Y15	Z15	X16	Y16	Z16	X17	Y17	Z17	X18	Y18	Z18	X19	Y19	Z19	X20	Y20	Z20	X21	Y21	Z21	X22	Y22	Z22	X23	Y23	Z23	X24	Y24	Z24	X25	Y25	Z25	X26	Y26	Z26	X27	Y27	Z27	X28	Y28	Z28	X29	Y29	Z29	X30	Y30	Z30	X31	Y31	Z31	X32	Y32	Z32	X33	Y33	Z33	

1	10.330000000000	678.200615135049	1002.859432958632	455.149123976129	827.543467484623	1442.284357819532	277.756394056321	936.766346766372	1375.033873100887	435.381907139691	852.481315429220	1439.624709311542	611.701960197661	814.316830465943	1499.137359101181	431.941937444301	906.643182742385	948.690644154275	569.100809740409	892.387009017441	968.721464063496	294.569628492392	991.371825240287	776.511486060263	534.639438668859	953.667430076364	652.882227432984	603.851460413425	1042.219871085689	616.090537145826	521.960760490524	1062.428302840576	501.329460193516	540.732764641957	941.482137898908	751.707102308345	328.204586492540	850.372039433967	636.423218619542	271.894092877842	929.990773530616	557.991437537199	339.151440796220	927.941908552188	488.885771906581	351.531430793495	900.708264102710	416.686467958059	343.598911637298	811.083781223897	302.424429002457	294.626804092387	858.964529304049	192.632532063863	369.064679553067	984.660094813810	426.710495649052	547.743349225501	863.255481984600	386.943771627475	608.011486465672	847.952088890601	278.653975763350	557.698915224682	646.751690547591	220.189089393076	527.455884022802	814.872953336119	159.271695677911	572.284870383530	703.200138692757	159.176575447778	601.386658767237	875.269050241585	43.932962210806	598.551535799040	728.819393293234	37.296804361383	413.674366283806	800.384137201632	35.287166948160	330.346652534835	884.258631518079	96.401131348294	355.559318039213	1011.798716501767	44.995106226666	322.335726305719	839.168789184151	1091.096281451544	147.640024237554	1022.814050672102	905.434451814546	162.676739614676	817.517346517395	1086.456848000872	713.001394209381	931.650392140100	851.383397568536	689.497664790957	
2	10.342285714286	676.628557207951	1003.315139828838	453.834559881838	828.601901739723	1442.959097239785	277.504945976553	936.369377857407	1375.117469849091	435.805105486202	850.899594612363	1439.524759387972	611.557945340020	814.126950789247	1499.516835145070	431.784901074210	904.657204116744	949.476199855971	569.087681712144	892.268404389545	969.003647830298	294.394856890993	991.160308482435	779.414963002182	534.265737367474	955.640120917618	655.436332940199	603.811257453099	1043.985006306514	619.652455243318	521.340643662914	1066.237705211715	506.225540276845	540.500144916286	938.143130365650	750.782952594001	328.717790060669	845.902541867242	636.527853851635	271.491687050505	923.943494709045	557.186216627227	339.129199746504	920.793821636678	488.206410510360	351.574991590433	893.765668374507	416.399281825702	343.418132075499	803.930178572304	302.346200069999	294.400434175639	851.372093840001	192.510990238434	369.003753222039	991.960020826689	429.356998381171	547.719840141860	873.101937892138	383.739768633612	607.958084614857	863.284075476544	275.102202201310	557.652482764823	665.790074160720	206.574653645798	527.457748005835	836.310357468734	154.633895127743	572.260242569699	725.225876464119	148.807893534881	601.466095541168	902.401120367457	43.054921525829	598.544882610509	720.942518536073	37.302458884855	413.687537658893	792.539382771667	35.249261279332	330.349472251687	876.424985094810	96.329713250995	355.580783546280	1003.990862193940	44.903093906765	322.354382202090	845.192691621090	1092.977155814336	145.875738663244	1036.915556353737	917.626508260140	162.966492899365	809.354197413744	1087.358263961079	712.305802265266	907.682118932498	846.606059251618	691.806752733254	
3	10.354571428571	675.075711625302	1003.747253823535	452.535912693611	829.660615714172	1443.604707925597	277.278152458262	935.988533646854	1375.172040798862	436.240342677955	849.353073433890	1439.408663995899	611.430745467690	813.952743070040	1499.870341772927	431.653152169769	902.699855312501	950.223380441267	569.080984925516	892.101412375221	969.243369270721	294.238655988188	990.900192677900	782.197610962673	533.911540296294	957.462911574582	657.876705905079	603.786710494667	1045.578804052912	623.050911399685	520.755940086214	1069.834734352537	510.995074291685	540.311329734460	934.865069776840	749.857739141731	329.214531184116	841.498135707523	636.616932714959	271.089195470811	917.972123004031	556.382540129593	339.104818612080	913.754494992408	487.539632422532	351.603809129528	886.914937188452	416.104747698754	343.239182808660	796.868584523127	302.262297532639	294.172750004981	843.864548746711	192.380731018273	368.942579512398	999.085313397536	431.895897570985	547.727104282579	882.879079775713	380.412471163451	607.975481605357	878.568173410063	271.486442623817	557.660299820936	684.928171219326	192.883571377360	527.547670842865	857.749040729574	149.996982075533	572.292400007107	747.328779126137	138.426405912026	601.633498837522	929.517828311627	42.271285329627	598.590476482134	713.150764316954	37.307428015694	413.693578940049	784.774544683216	35.211374989414	330.352154744352	868.672421778458	96.259782338585	355.603056280177	996.262684856673	44.807459057490	322.373349496578	851.117247380992	1094.822471167945	144.174961555641	1050.719968793018	929.743250527905	163.294420163593	801.195620155812	1088.290438802567	711.662157885850	884.132401646216	842.175915917972	694.110706632650	
4	10.366857142857	673.568428318113	1004.126082139655	451.272912499552	830.720030964889	1444.183739432219	277.104971209596	935.639694575897	1375.164628223816	436.705805406452	847.875913642837	1439.258373999003	611.341873650319	813.808928742856	1500.165106229530	431.573977617970	900.803009834192	950.885360145513	569.096624336320	891.853882187798	969.397542835752	294.124530528122	990.513730572775	784.697081008984	533.616956112056	958.932366826768	660.063640812316	603.817310817563	1046.784620551548	626.084959898676	520.269069367745	1072.956339744702	515.492170354968	540.213137847781	931.689034838383	748.923515343315	329.678902020638	837.191522111260	636.678007906877	270.688763484920	912.116249980356	555.578183845691	339.071913872059	906.887712530361	486.892584179010	351.600026085428	880.202690499018	415.797818914973	343.059642277657	789.940847814664	302.171397070969	293.941708094688	836.477242495824	192.236110773144	368.877870508272	1005.840352427822	434.231429266014	547.804762680091	892.553577677334	376.857077397435	608.140700602354	893.811640455427	267.800700396478	557.773060792102	704.401029649348	179.095572894969	527.808575896565	879.291448790352	145.440640969042	572.416785891231	769.720783699779	128.088789237644	601.957210368062	956.696961487638	41.786977660590	598.695330508427	705.478985993186	37.313360349567	413.686319159393	777.119253904779	35.174251611874	330.354174152208	861.031828401283	96.192062352467	355.624915802789	988.643556351133	44.703154714634	322.392524755639	856.871253863369	1096.592039612487	142.606512278313	1063.962271792281	941.719746725884	163.712812965305	793.027044787369	1089.303798270030	711.124965962626	861.358607537171	838.421636110145	696.407647324032	
5	10.379142857143	672.130350291164	1004.426509917902	450.061542992828	831.779082771316	1444.663287033598	277.010276244000	935.334850620405	1375.068546031632	437.218051546787	846.494484715166	1439.059929089991	611.310064683414	813.706962249380	1500.371908812107	431.569551610677	898.994545744506	951.420673765605	569.152244747640	891.512530218324	969.434865701691	294.071959652093	989.926348236119	786.763947369677	533.420728684763	959.857035982333	661.871275869754	603.941975210296	1047.405076163088	628.575333027737	519.943466596261	1075.370074248911	519.592133227169	540.245733902582	928.639334517667	747.970973165034	330.096076552851	832.993343675642	636.703065111744	270.293176400865	906.391733806758	554.770027913525	339.021503505538	900.222672849255	486.267341076884	351.548680971893	873.645577831382	415.475755200882	342.875121480433	783.157521546804	302.074002735376	293.704840845482	829.216716023251	192.073878260239	368.805061905808	1012.061229234931	436.291848975219	547.986850018899	902.121860865719	372.996678579016	608.520978656818	909.050851465475	264.066544983015	558.029130093877	724.466854904207	165.221427414919	528.308451897306	901.070956730722	141.065851390213	572.650404688612	792.641604167695	117.873739226791	602.483405082002	984.046947331211	41.820140289007	598.841689340373	697.930862330606	37.322591649896	413.661731272867	769.574303437963	35.138228476080	330.354850652462	853.504676158575	96.126240242624	355.644675640973	981.134028125169	44.585383589833	322.411542759972	862.412446075740	1098.252482619343	141.226671412297	1076.446762629747	953.509685108681	164.268054377074	784.826648129636	1090.451551033068	710.741628527666	839.618826890217	835.590571352188	698.694748733631	
